{"accessors":[{"bufferView":0,"componentType":5123,"count":370686,"max":[62759],"min":[0],"type":"SCALAR"},{"bufferView":1,"componentType":5126,"count":62760,"max":[355.0826721191406,210.35665893554688,383.79742431640625],"min":[-353.3778381347656,-190.3651580810547,-385.628662109375],"type":"VEC3"},{"bufferView":2,"componentType":5126,"count":62760,"max":[0.9999966621398926,0.9999988675117493,0.9831977486610413],"min":[-0.9999994039535522,-0.9999978542327881,-0.997562050819397],"type":"VEC3"},{"bufferView":3,"componentType":5126,"count":62760,"max":[0.9999991655349731,0.9999991059303284,0.9703466892242432,-1.0],"min":[-0.9999829530715942,-0.9999957084655762,-0.987794816493988,-1.0],"type":"VEC4"},{"bufferView":4,"componentType":5126,"count":62760,"max":[0.9906971454620361,0.9906971454620361],"min":[0.009302887134253979,0.22351962327957153],"type":"VEC2"},{"bufferView":5,"componentType":5123,"count":370686,"max":[62759],"min":[0],"type":"SCALAR"},{"bufferView":6,"componentType":5126,"count":62760,"max":[355.0826721191406,210.35665893554688,383.79742431640625],"min":[-353.3778381347656,-190.3651580810547,-385.628662109375],"type":"VEC3"},{"bufferView":7,"componentType":5126,"count":62760,"max":[0.9999993443489075,0.9999978542327881,0.9989344477653503],"min":[-0.9999920129776001,-0.9999988675117493,-0.9827040433883667],"type":"VEC3"},{"bufferView":8,"componentType":5126,"count":62760,"max":[0.9999991059303284,0.9999991059303284,0.9703468084335327,1.0],"min":[-0.9999861121177673,-0.9999949932098389,-0.9871433973312378,1.0],"type":"VEC4"},{"bufferView":9,"componentType":5126,"count":62760,"max":[0.9906971454620361,0.9906971454620361],"min":[0.009302887134253979,0.22351962327957153],"type":"VEC2"},{"bufferView":10,"componentType":5123,"count":97512,"max":[16752],"min":[0],"type":"SCALAR"},{"bufferView":11,"componentType":5126,"count":16753,"max":[0.41225099563598633,0.21682532131671906,-0.901330292224884],"min":[-0.3527211844921112,-0.18437884747982025,-1.6675633192062378],"type":"VEC3"},{"bufferView":12,"componentType":5126,"count":16753,"max":[0.9999741315841675,0.999995768070221,0.9401963353157043],"min":[-0.9999967813491821,-0.9999881982803345,-0.9864726662635803],"type":"VEC3"},{"bufferView":13,"componentType":5126,"count":16753,"max":[0.9999990463256836,0.9999915957450867,0.9531844854354858,-1.0],"min":[-0.9999975562095642,-0.9999904036521912,-0.9693673253059387,-1.0],"type":"VEC4"},{"bufferView":14,"componentType":5126,"count":16753,"max":[0.9906971454620361,0.9906971454620361],"min":[0.009302887134253979,0.22351962327957153],"type":"VEC2"},{"bufferView":15,"componentType":5126,"count":16753,"max":[11.021919250488281,3.555485963821411,4.257652282714844],"min":[4.597908020019531,-4.242408752441406,-0.9130940437316895],"type":"VEC3"},{"bufferView":16,"componentType":5126,"count":16753,"max":[1.503316879272461,1.627526879310608,1.7180519104003906],"min":[-1.3303064107894897,-1.559814214706421,-1.557725191116333],"type":"VEC3"},{"bufferView":17,"componentType":5126,"count":16753,"max":[1.2340571880340576,1.2477350234985352,1.1327133178710938],"min":[-1.352381706237793,-1.3919602632522583,-1.4269893169403076],"type":"VEC3"},{"bufferView":18,"componentType":5126,"count":16753,"max":[10.958396911621094,3.3963184356689453,4.354959964752197],"min":[4.415898323059082,-4.522732734680176,-0.9048202037811279],"type":"VEC3"},{"bufferView":19,"componentType":5126,"count":16753,"max":[1.5088958740234375,1.6682852506637573,1.7663358449935913],"min":[-1.5330604314804077,-1.4345964193344116,-1.5262397527694702],"type":"VEC3"},{"bufferView":20,"componentType":5126,"count":16753,"max":[1.60555100440979,1.2499668598175049,1.15587317943573],"min":[-1.3481104373931885,-1.3734314441680908,-1.3842082023620605],"type":"VEC3"},{"bufferView":21,"componentType":5126,"count":16753,"max":[10.907023429870605,3.436277389526367,4.097963333129883],"min":[3.9960193634033203,-4.452631950378418,-0.7655994296073914],"type":"VEC3"},{"bufferView":22,"componentType":5126,"count":16753,"max":[1.2496414184570312,1.5960140228271484,1.930562973022461],"min":[-1.3788907527923584,-1.4316020011901855,-1.5189902782440186],"type":"VEC3"},{"bufferView":23,"componentType":5126,"count":16753,"max":[1.8772401809692383,1.2844361066818237,1.1325764656066895],"min":[-1.0537275075912476,-1.413865089416504,-1.3590388298034668],"type":"VEC3"},{"bufferView":24,"componentType":5126,"count":16753,"max":[10.75071907043457,3.657978057861328,3.796949863433838],"min":[3.7261595726013184,-4.1892170906066895,-0.5313345789909363],"type":"VEC3"},{"bufferView":25,"componentType":5126,"count":16753,"max":[1.1246721744537354,1.589935541152954,1.9727094173431396],"min":[-1.6665937900543213,-1.4471659660339355,-1.541632056236267],"type":"VEC3"},{"bufferView":26,"componentType":5126,"count":16753,"max":[1.3121752738952637,1.2578784227371216,1.5232374668121338],"min":[-0.8252226710319519,-1.4057153463363647,-1.338416576385498],"type":"VEC3"},{"bufferView":27,"componentType":5126,"count":16753,"max":[10.586843490600586,3.9807968139648438,3.8629260063171387],"min":[3.726506233215332,-3.7954087257385254,-0.5388611555099487],"type":"VEC3"},{"bufferView":28,"componentType":5126,"count":16753,"max":[1.2382498979568481,1.6780757904052734,1.966362714767456],"min":[-1.5848686695098877,-1.453831672668457,-1.5394943952560425],"type":"VEC3"},{"bufferView":29,"componentType":5126,"count":16753,"max":[1.8867708444595337,1.2792781591415405,1.2717921733856201],"min":[-1.1367875337600708,-1.5045989751815796,-1.3626856803894043],"type":"VEC3"},{"bufferView":30,"componentType":5126,"count":16753,"max":[10.758089065551758,4.16779899597168,3.764756202697754],"min":[3.920804738998413,-3.394665241241455,-0.5308172702789307],"type":"VEC3"},{"bufferView":31,"componentType":5126,"count":16753,"max":[1.219207763671875,1.510408878326416,1.897080898284912],"min":[-1.5199241638183594,-1.562793493270874,-1.5263488292694092],"type":"VEC3"},{"bufferView":32,"componentType":5126,"count":16753,"max":[1.9012261629104614,1.4154930114746094,1.3682961463928223],"min":[-1.3301125764846802,-1.3664097785949707,-1.3853514194488525],"type":"VEC3"},{"bufferView":33,"componentType":5126,"count":16753,"max":[11.022709846496582,4.117915630340576,3.4589791297912598],"min":[4.108218193054199,-3.3963727951049805,-0.539696991443634],"type":"VEC3"},{"bufferView":34,"componentType":5126,"count":16753,"max":[1.5297026634216309,1.5455043315887451,1.870408058166504],"min":[-1.3048896789550781,-1.6432359218597412,-1.560904622077942],"type":"VEC3"},{"bufferView":35,"componentType":5126,"count":16753,"max":[1.7610011100769043,1.42582106590271,1.4237438440322876],"min":[-1.1409858465194702,-1.3356618881225586,-1.4892103672027588],"type":"VEC3"},{"bufferView":36,"componentType":5126,"count":16753,"max":[11.149643898010254,3.730013370513916,3.4155964851379395],"min":[4.271433353424072,-3.911587953567505,-0.7671641707420349],"type":"VEC3"},{"bufferView":37,"componentType":5126,"count":16753,"max":[1.6710171699523926,1.604494333267212,1.8776363134384155],"min":[-1.4599360227584839,-1.6691486835479736,-1.613769769668579],"type":"VEC3"},{"bufferView":38,"componentType":5126,"count":16753,"max":[1.8756619691848755,1.527153730392456,1.4561293125152588],"min":[-1.2475886344909668,-1.3577053546905518,-1.4813241958618164],"type":"VEC3"},{"bufferView":39,"componentType":5126,"count":16753,"max":[11.29648208618164,3.3907270431518555,3.7822744846343994],"min":[4.198251724243164,-4.508531093597412,-0.9866556525230408],"type":"VEC3"},{"bufferView":40,"componentType":5126,"count":16753,"max":[1.7225147485733032,1.7072951793670654,1.8950655460357666],"min":[-1.756483793258667,-1.5674526691436768,-1.6369478702545166],"type":"VEC3"},{"bufferView":41,"componentType":5126,"count":16753,"max":[1.700713872909546,1.6443004608154297,1.457419991493225],"min":[-1.3812284469604492,-1.2447596788406372,-1.5824196338653564],"type":"VEC3"},{"bufferView":42,"componentType":5126,"count":16753,"max":[11.516993522644043,3.312718391418457,3.680558919906616],"min":[4.284551620483398,-4.504937648773193,-1.0813593864440918],"type":"VEC3"},{"bufferView":43,"componentType":5126,"count":16753,"max":[1.7889900207519531,1.7063841819763184,1.8635754585266113],"min":[-1.7535481452941895,-1.4992238283157349,-1.6267472505569458],"type":"VEC3"},{"bufferView":44,"componentType":5126,"count":16753,"max":[1.806301474571228,1.680896282196045,1.4839918613433838],"min":[-1.457463264465332,-1.296420931816101,-1.5855956077575684],"type":"VEC3"},{"bufferView":45,"componentType":5126,"count":16753,"max":[11.790026664733887,3.3984627723693848,3.359241008758545],"min":[4.595894813537598,-4.284414768218994,-0.8242124319076538],"type":"VEC3"},{"bufferView":46,"componentType":5126,"count":16753,"max":[1.5285274982452393,1.4893081188201904,1.965633511543274],"min":[-1.6316839456558228,-1.5087389945983887,-1.6143927574157715],"type":"VEC3"},{"bufferView":47,"componentType":5126,"count":16753,"max":[1.6235859394073486,1.366075038909912,1.4632948637008667],"min":[-1.404369831085205,-1.2951427698135376,-1.531781792640686],"type":"VEC3"},{"bufferView":48,"componentType":5126,"count":16753,"max":[11.820229530334473,3.564497947692871,3.4786953926086426],"min":[4.882205009460449,-4.259934425354004,-0.7202633619308472],"type":"VEC3"},{"bufferView":49,"componentType":5126,"count":16753,"max":[1.4343070983886719,1.5273308753967285,1.9808056354522705],"min":[-1.5997235774993896,-1.4065139293670654,-1.6220126152038574],"type":"VEC3"},{"bufferView":50,"componentType":5126,"count":16753,"max":[1.748445749282837,1.6812009811401367,1.5498392581939697],"min":[-1.3265867233276367,-1.27342689037323,-1.4804328680038452],"type":"VEC3"},{"bufferView":51,"componentType":5126,"count":16753,"max":[11.552398681640625,3.8205652236938477,3.5266613960266113],"min":[4.941614151000977,-3.874537706375122,-0.49363279342651367],"type":"VEC3"},{"bufferView":52,"componentType":5126,"count":16753,"max":[1.571366786956787,1.615159273147583,1.9623847007751465],"min":[-1.71809720993042,-1.3992960453033447,-1.5658252239227295],"type":"VEC3"},{"bufferView":53,"componentType":5126,"count":16753,"max":[1.5959707498550415,1.6848645210266113,1.5701704025268555],"min":[-1.4626123905181885,-1.2747383117675781,-1.4386775493621826],"type":"VEC3"},{"bufferView":54,"componentType":5126,"count":16753,"max":[11.13789176940918,3.986111879348755,3.427248001098633],"min":[4.652708053588867,-3.5375442504882812,-0.561056911945343],"type":"VEC3"},{"bufferView":55,"componentType":5126,"count":16753,"max":[1.0927026271820068,1.6006784439086914,1.936725378036499],"min":[-1.503183364868164,-1.4712262153625488,-1.5019254684448242],"type":"VEC3"},{"bufferView":56,"componentType":5126,"count":16753,"max":[1.4246134757995605,1.4483932256698608,1.4460630416870117],"min":[-0.8671360015869141,-1.4151496887207031,-1.4110435247421265],"type":"VEC3"},{"bufferView":57,"componentType":5126,"count":16753,"max":[11.065757751464844,3.8921048641204834,3.8147945404052734],"min":[4.563796520233154,-3.681678533554077,-0.7094119191169739],"type":"VEC3"},{"bufferView":58,"componentType":5126,"count":16753,"max":[0.9795053005218506,1.5788633823394775,1.6996240615844727],"min":[-1.163940668106079,-1.5761570930480957,-1.4679982662200928],"type":"VEC3"},{"bufferView":59,"componentType":5126,"count":16753,"max":[1.0405213832855225,1.2824373245239258,1.1148335933685303],"min":[-0.9086174964904785,-1.575488805770874,-1.4215270280838013],"type":"VEC3"},{"bufferView":60,"componentType":5126,"count":16753,"max":[11.021919250488281,3.555485963821411,4.257652282714844],"min":[4.597908020019531,-4.242408752441406,-0.9130940437316895],"type":"VEC3"},{"bufferView":61,"componentType":5126,"count":16753,"max":[1.503316879272461,1.627526879310608,1.7180519104003906],"min":[-1.3303064107894897,-1.559814214706421,-1.557725191116333],"type":"VEC3"},{"bufferView":62,"componentType":5126,"count":16753,"max":[1.2340571880340576,1.2477350234985352,1.1327133178710938],"min":[-1.352381706237793,-1.3919602632522583,-1.4269893169403076],"type":"VEC3"},{"bufferView":63,"componentType":5123,"count":97512,"max":[16752],"min":[0],"type":"SCALAR"},{"bufferView":64,"componentType":5126,"count":16753,"max":[355.55731201171875,185.478759765625,381.5576171875],"min":[-355.5578308105469,-186.4170379638672,-381.55743408203125],"type":"VEC3"},{"bufferView":65,"componentType":5126,"count":16753,"max":[0.999950647354126,0.9999925494194031,0.9504410028457642],"min":[-0.9999839067459106,-0.999993622303009,-0.971126139163971],"type":"VEC3"},{"bufferView":66,"componentType":5126,"count":16753,"max":[0.9999938011169434,0.9999969005584717,0.9779654741287231,-1.0],"min":[-0.9999979138374329,-0.9999895691871643,-0.9960684180259705,-1.0],"type":"VEC4"},{"bufferView":67,"componentType":5126,"count":16753,"max":[0.9906971454620361,0.9906971454620361],"min":[0.009302887134253979,0.22351962327957153],"type":"VEC2"},{"bufferView":68,"componentType":5126,"count":16753,"max":[344.8722229003906,182.6844940185547,381.0537109375],"min":[-359.131591796875,-189.16110229492188,-382.6181640625],"type":"VEC3"},{"bufferView":69,"componentType":5126,"count":16753,"max":[1.0990761518478394,1.4293911457061768,1.407874584197998],"min":[-1.051899790763855,-1.4059990644454956,-1.4151203632354736],"type":"VEC3"},{"bufferView":70,"componentType":5126,"count":16753,"max":[0.9889557361602783,1.2889341115951538,1.320983648300171],"min":[-0.9141038656234741,-1.368850827217102,-1.3154228925704956],"type":"VEC3"},{"bufferView":71,"componentType":5126,"count":16753,"max":[344.87225341796875,182.68447875976562,381.0474548339844],"min":[-359.131591796875,-189.16111755371094,-382.6246337890625],"type":"VEC3"},{"bufferView":72,"componentType":5126,"count":16753,"max":[0.976997971534729,1.4292833805084229,1.4057550430297852],"min":[-0.933235764503479,-1.4029500484466553,-1.4101612567901611],"type":"VEC3"},{"bufferView":73,"componentType":5126,"count":16753,"max":[0.851392388343811,1.2904741764068604,1.3200016021728516],"min":[-0.8211037516593933,-1.3709120750427246,-1.2945526838302612],"type":"VEC3"},{"bufferView":74,"componentType":5126,"count":16753,"max":[344.87225341796875,182.68447875976562,381.04766845703125],"min":[-359.1316223144531,-189.16111755371094,-382.610595703125],"type":"VEC3"},{"bufferView":75,"componentType":5126,"count":16753,"max":[0.739737868309021,1.4218065738677979,1.397221565246582],"min":[-0.7256388068199158,-1.4027376174926758,-1.415217399597168],"type":"VEC3"},{"bufferView":76,"componentType":5126,"count":16753,"max":[0.5975223779678345,1.2904272079467773,1.3285822868347168],"min":[-0.5693469047546387,-1.3751378059387207,-1.2469234466552734],"type":"VEC3"},{"bufferView":77,"componentType":5126,"count":16753,"max":[344.8722839355469,182.6844940185547,381.0542297363281],"min":[-359.13165283203125,-189.16110229492188,-382.5814208984375],"type":"VEC3"},{"bufferView":78,"componentType":5126,"count":16753,"max":[0.4039180874824524,1.405935525894165,1.3984217643737793],"min":[-0.4023229777812958,-1.404341697692871,-1.412022352218628],"type":"VEC3"},{"bufferView":79,"componentType":5126,"count":16753,"max":[0.5229587554931641,1.288421869277954,1.3330557346343994],"min":[-0.5029944181442261,-1.3797792196273804,-1.1915457248687744],"type":"VEC3"},{"bufferView":80,"componentType":5126,"count":16753,"max":[344.872314453125,182.68450927734375,381.0646667480469],"min":[-359.1316833496094,-189.1610870361328,-382.5482482910156],"type":"VEC3"},{"bufferView":81,"componentType":5126,"count":16753,"max":[1.2934207916259766e-05,1.4040987491607666,1.3981101512908936],"min":[-1.2997537851333618e-05,-1.4095959663391113,-1.4136911630630493],"type":"VEC3"},{"bufferView":82,"componentType":5126,"count":16753,"max":[0.49289000034332275,1.286773920059204,1.3309650421142578],"min":[-0.49013662338256836,-1.3823654651641846,-1.1688884496688843],"type":"VEC3"},{"bufferView":83,"componentType":5126,"count":16753,"max":[344.872314453125,182.6845245361328,381.074951171875],"min":[-359.13165283203125,-189.16107177734375,-382.5237731933594],"type":"VEC3"},{"bufferView":84,"componentType":5126,"count":16753,"max":[0.3836820721626282,1.4073768854141235,1.397341251373291],"min":[-0.3753930330276489,-1.4110491275787354,-1.4127733707427979],"type":"VEC3"},{"bufferView":85,"componentType":5126,"count":16753,"max":[0.5288870334625244,1.2873659133911133,1.3282177448272705],"min":[-0.5215597152709961,-1.381739616394043,-1.2089735269546509],"type":"VEC3"},{"bufferView":86,"componentType":5126,"count":16753,"max":[344.872314453125,182.68453979492188,381.0812072753906],"min":[-359.13165283203125,-189.16107177734375,-382.51727294921875],"type":"VEC3"},{"bufferView":87,"componentType":5126,"count":16753,"max":[0.6950451135635376,1.4047218561172485,1.3919042348861694],"min":[-0.6750041246414185,-1.4107003211975098,-1.4127652645111084],"type":"VEC3"},{"bufferView":88,"componentType":5126,"count":16753,"max":[0.5723287463188171,1.2896872758865356,1.3296098709106445],"min":[-0.5397741794586182,-1.3781700134277344,-1.2489087581634521],"type":"VEC3"},{"bufferView":89,"componentType":5126,"count":16753,"max":[344.8722839355469,182.68453979492188,381.0810241699219],"min":[-359.1316223144531,-189.16107177734375,-382.53131103515625],"type":"VEC3"},{"bufferView":90,"componentType":5126,"count":16753,"max":[0.9005558490753174,1.3966549634933472,1.3806335926055908],"min":[-0.8677608966827393,-1.410491704940796,-1.4121999740600586],"type":"VEC3"},{"bufferView":91,"componentType":5126,"count":16753,"max":[0.7844134569168091,1.2912781238555908,1.3316991329193115],"min":[-0.578646719455719,-1.3733388185501099,-1.2922292947769165],"type":"VEC3"},{"bufferView":92,"componentType":5126,"count":16753,"max":[344.87225341796875,182.6845245361328,381.074462890625],"min":[-359.131591796875,-189.1610870361328,-382.56048583984375],"type":"VEC3"},{"bufferView":93,"componentType":5126,"count":16753,"max":[1.0369609594345093,1.406174659729004,1.3940149545669556],"min":[-0.962981104850769,-1.4106369018554688,-1.413465976715088],"type":"VEC3"},{"bufferView":94,"componentType":5126,"count":16753,"max":[1.0221227407455444,1.2903766632080078,1.3287503719329834],"min":[-0.7173492908477783,-1.369873285293579,-1.3131918907165527],"type":"VEC3"},{"bufferView":95,"componentType":5126,"count":16753,"max":[344.8722229003906,182.68450927734375,381.06402587890625],"min":[-359.131591796875,-189.16110229492188,-382.5936584472656],"type":"VEC3"},{"bufferView":96,"componentType":5126,"count":16753,"max":[1.1175410747528076,1.4221642017364502,1.4039400815963745],"min":[-1.064163088798523,-1.407798409461975,-1.4126670360565186],"type":"VEC3"},{"bufferView":97,"componentType":5126,"count":16753,"max":[1.0563287734985352,1.2886903285980225,1.3211605548858643],"min":[-0.8708674311637878,-1.3685507774353027,-1.3186323642730713],"type":"VEC3"},{"bufferView":98,"componentType":5126,"count":16753,"max":[344.8722229003906,182.6844940185547,381.0537109375],"min":[-359.131591796875,-189.16110229492188,-382.6181640625],"type":"VEC3"},{"bufferView":99,"componentType":5126,"count":16753,"max":[1.0990761518478394,1.4293911457061768,1.407874584197998],"min":[-1.051899790763855,-1.4059990644454956,-1.4151203632354736],"type":"VEC3"},{"bufferView":100,"componentType":5126,"count":16753,"max":[0.9889557361602783,1.2889341115951538,1.320983648300171],"min":[-0.9141038656234741,-1.368850827217102,-1.3154228925704956],"type":"VEC3"},{"bufferView":101,"componentType":5126,"count":16753,"max":[344.87225341796875,182.68447875976562,381.0474548339844],"min":[-359.131591796875,-189.16111755371094,-382.6246337890625],"type":"VEC3"},{"bufferView":102,"componentType":5126,"count":16753,"max":[0.976997971534729,1.4292833805084229,1.4057550430297852],"min":[-0.933235764503479,-1.4029500484466553,-1.4101612567901611],"type":"VEC3"},{"bufferView":103,"componentType":5126,"count":16753,"max":[0.851392388343811,1.2904741764068604,1.3200016021728516],"min":[-0.8211037516593933,-1.3709120750427246,-1.2945526838302612],"type":"VEC3"},{"bufferView":104,"componentType":5126,"count":16753,"max":[344.87225341796875,182.68447875976562,381.04766845703125],"min":[-359.1316223144531,-189.16111755371094,-382.610595703125],"type":"VEC3"},{"bufferView":105,"componentType":5126,"count":16753,"max":[0.739737868309021,1.4218065738677979,1.397221565246582],"min":[-0.7256388068199158,-1.4027376174926758,-1.415217399597168],"type":"VEC3"},{"bufferView":106,"componentType":5126,"count":16753,"max":[0.5975223779678345,1.2904272079467773,1.3285822868347168],"min":[-0.5693469047546387,-1.3751378059387207,-1.2469234466552734],"type":"VEC3"},{"bufferView":107,"componentType":5126,"count":16753,"max":[344.8722839355469,182.6844940185547,381.0542297363281],"min":[-359.13165283203125,-189.16110229492188,-382.5814208984375],"type":"VEC3"},{"bufferView":108,"componentType":5126,"count":16753,"max":[0.4039180874824524,1.405935525894165,1.3984217643737793],"min":[-0.4023229777812958,-1.404341697692871,-1.412022352218628],"type":"VEC3"},{"bufferView":109,"componentType":5126,"count":16753,"max":[0.5229587554931641,1.288421869277954,1.3330557346343994],"min":[-0.5029944181442261,-1.3797792196273804,-1.1915457248687744],"type":"VEC3"},{"bufferView":110,"componentType":5126,"count":16753,"max":[344.872314453125,182.68450927734375,381.0646667480469],"min":[-359.1316833496094,-189.1610870361328,-382.5482482910156],"type":"VEC3"},{"bufferView":111,"componentType":5126,"count":16753,"max":[1.2934207916259766e-05,1.4040987491607666,1.3981101512908936],"min":[-1.2997537851333618e-05,-1.4095959663391113,-1.4136911630630493],"type":"VEC3"},{"bufferView":112,"componentType":5126,"count":16753,"max":[0.49289000034332275,1.286773920059204,1.3309650421142578],"min":[-0.49013662338256836,-1.3823654651641846,-1.1688884496688843],"type":"VEC3"},{"bufferView":113,"componentType":5126,"count":16753,"max":[344.872314453125,182.6845245361328,381.074951171875],"min":[-359.13165283203125,-189.16107177734375,-382.5237731933594],"type":"VEC3"},{"bufferView":114,"componentType":5126,"count":16753,"max":[0.3836820721626282,1.4073768854141235,1.397341251373291],"min":[-0.3753930330276489,-1.4110486507415771,-1.4127733707427979],"type":"VEC3"},{"bufferView":115,"componentType":5126,"count":16753,"max":[0.5288870334625244,1.2873659133911133,1.3282177448272705],"min":[-0.5215597152709961,-1.381739616394043,-1.2089735269546509],"type":"VEC3"},{"bufferView":116,"componentType":5126,"count":16753,"max":[344.872314453125,182.68453979492188,381.0812072753906],"min":[-359.13165283203125,-189.16107177734375,-382.51727294921875],"type":"VEC3"},{"bufferView":117,"componentType":5126,"count":16753,"max":[0.6950451135635376,1.4047218561172485,1.3919042348861694],"min":[-0.6750041246414185,-1.4107003211975098,-1.4127652645111084],"type":"VEC3"},{"bufferView":118,"componentType":5126,"count":16753,"max":[0.5723287463188171,1.2896872758865356,1.3296098709106445],"min":[-0.5397741794586182,-1.3781700134277344,-1.2489087581634521],"type":"VEC3"},{"bufferView":119,"componentType":5126,"count":16753,"max":[344.8722839355469,182.68453979492188,381.0810241699219],"min":[-359.1316223144531,-189.16107177734375,-382.53131103515625],"type":"VEC3"},{"bufferView":120,"componentType":5126,"count":16753,"max":[0.9005558490753174,1.3966549634933472,1.3806335926055908],"min":[-0.8677608966827393,-1.410491704940796,-1.4121999740600586],"type":"VEC3"},{"bufferView":121,"componentType":5126,"count":16753,"max":[0.7844134569168091,1.2912781238555908,1.3316991329193115],"min":[-0.578646719455719,-1.3733388185501099,-1.2922292947769165],"type":"VEC3"},{"bufferView":122,"componentType":5126,"count":16753,"max":[344.87225341796875,182.6845245361328,381.074462890625],"min":[-359.131591796875,-189.1610870361328,-382.56048583984375],"type":"VEC3"},{"bufferView":123,"componentType":5126,"count":16753,"max":[1.0369609594345093,1.406174659729004,1.3940149545669556],"min":[-0.962981104850769,-1.4106369018554688,-1.413465976715088],"type":"VEC3"},{"bufferView":124,"componentType":5126,"count":16753,"max":[1.0221227407455444,1.2903766632080078,1.3287503719329834],"min":[-0.7173492908477783,-1.369873285293579,-1.3131918907165527],"type":"VEC3"},{"bufferView":125,"componentType":5126,"count":16753,"max":[344.8722229003906,182.68450927734375,381.06402587890625],"min":[-359.131591796875,-189.16110229492188,-382.5936584472656],"type":"VEC3"},{"bufferView":126,"componentType":5126,"count":16753,"max":[1.1175410747528076,1.4221642017364502,1.4039400815963745],"min":[-1.064163088798523,-1.407798409461975,-1.4126670360565186],"type":"VEC3"},{"bufferView":127,"componentType":5126,"count":16753,"max":[1.0563287734985352,1.2886903285980225,1.3211605548858643],"min":[-0.8708674311637878,-1.3685507774353027,-1.3186323642730713],"type":"VEC3"},{"bufferView":128,"componentType":5126,"count":16753,"max":[344.8722229003906,182.6844940185547,381.0537109375],"min":[-359.131591796875,-189.16110229492188,-382.6181640625],"type":"VEC3"},{"bufferView":129,"componentType":5126,"count":16753,"max":[1.0990761518478394,1.4293911457061768,1.407874584197998],"min":[-1.051899790763855,-1.4059990644454956,-1.4151203632354736],"type":"VEC3"},{"bufferView":130,"componentType":5126,"count":16753,"max":[0.9889557361602783,1.2889341115951538,1.320983648300171],"min":[-0.9141038656234741,-1.368850827217102,-1.3154228925704956],"type":"VEC3"},{"bufferView":131,"componentType":5121,"count":6,"max":[3],"min":[0],"type":"SCALAR"},{"bufferView":132,"componentType":5126,"count":4,"max":[15.693794250488281,0.0,15.693794250488281],"min":[-15.693794250488281,0.0,-15.693794250488281],"type":"VEC3"},{"bufferView":133,"componentType":5126,"count":4,"max":[0.0,1.0,-0.0],"min":[0.0,1.0,-0.0],"type":"VEC3"},{"bufferView":134,"componentType":5126,"count":4,"max":[1.0,1.0],"min":[0.0,0.0],"type":"VEC2"},{"bufferView":135,"componentType":5121,"count":6,"max":[3],"min":[0],"type":"SCALAR"},{"bufferView":136,"componentType":5126,"count":4,"max":[1.0,0.0,1.0],"min":[-1.0,0.0,-1.0],"type":"VEC3"},{"bufferView":137,"componentType":5126,"count":4,"max":[0.0,1.0,-0.0],"min":[0.0,1.0,-0.0],"type":"VEC3"},{"bufferView":138,"componentType":5126,"count":4,"max":[1.0,1.0],"min":[0.0,0.0],"type":"VEC2"},{"bufferView":139,"componentType":5121,"count":6,"max":[3],"min":[0],"type":"SCALAR"},{"bufferView":140,"componentType":5126,"count":4,"max":[1.0,0.0,1.0],"min":[-1.0,0.0,-1.0],"type":"VEC3"},{"bufferView":141,"componentType":5126,"count":4,"max":[0.0,1.0,-0.0],"min":[0.0,1.0,-0.0],"type":"VEC3"},{"bufferView":142,"componentType":5126,"count":4,"max":[1.0,1.0],"min":[0.0,0.0],"type":"VEC2"},{"bufferView":143,"componentType":5123,"count":6996,"max":[1179],"min":[0],"type":"SCALAR"},{"bufferView":144,"componentType":5126,"count":1180,"max":[6.7424492835998535,8.403339385986328,6.7424516677856445],"min":[-6.742455959320068,-1.5787353646601332e-08,-6.742453575134277],"type":"VEC3"},{"bufferView":145,"componentType":5126,"count":1180,"max":[0.998796284198761,1.0,0.998796284198761],"min":[-0.998796284198761,-0.99872225522995,-0.998796284198761],"type":"VEC3"},{"bufferView":146,"componentType":5126,"count":1180,"max":[1.0,0.9991848468780518],"min":[0.0008151654037646949,0.0008151531219482422],"type":"VEC2"},{"bufferView":147,"componentType":5126,"count":47,"max":[2.0],"min":[0.23333333432674408],"type":"SCALAR"},{"bufferView":148,"componentType":5126,"count":47,"max":[0.0,0.0,0.0,1.0],"min":[0.0,-1.0,-0.0,-4.371138828673793e-08],"type":"VEC4"},{"bufferView":149,"componentType":5126,"count":37,"max":[2.0],"min":[0.23333333432674408],"type":"SCALAR"},{"bufferView":150,"componentType":5126,"count":37,"max":[1.0,1.0,1.0],"min":[0.0,0.0,0.0],"type":"VEC3"},{"bufferView":151,"componentType":5126,"count":6,"max":[8.0],"min":[0.0],"type":"SCALAR"},{"bufferView":152,"componentType":5126,"count":6,"max":[0.0,0.9615617990493774,0.0,1.0],"min":[-0.0,-8.742277657347586e-08,-0.0,-1.0],"type":"VEC4"},{"bufferView":153,"componentType":5126,"count":6,"max":[8.0],"min":[0.0],"type":"SCALAR"},{"bufferView":154,"componentType":5126,"count":6,"max":[0.0,0.9615617990493774,0.0,1.0],"min":[-0.0,-8.742277657347586e-08,-0.0,-1.0],"type":"VEC4"},{"bufferView":155,"componentType":5126,"count":60,"max":[5.666666507720947],"min":[2.4000000953674316],"type":"SCALAR"},{"bufferView":156,"componentType":5126,"count":60,"max":[0.0,0.0,25.00103187561035],"min":[0.0,0.0,12.996788024902344],"type":"VEC3"},{"bufferView":157,"componentType":5126,"count":21,"max":[0.6666666865348816],"min":[0.0],"type":"SCALAR"},{"bufferView":158,"componentType":5126,"count":441,"max":[1.0],"min":[0.0],"type":"SCALAR"},{"bufferView":159,"componentType":5126,"count":17,"max":[0.5666666626930237],"min":[0.03333333507180214],"type":"SCALAR"},{"bufferView":160,"componentType":5126,"count":272,"max":[1.0],"min":[0.0],"type":"SCALAR"}],"animations":[{"channels":[{"sampler":0,"target":{"node":4,"path":"rotation"}},{"sampler":1,"target":{"node":4,"path":"scale"}}],"extensions":{"S8S_v3d_animation":{"auto":false,"loop":"ONCE","offset":0.0,"repeatCount":1.0,"repeatInfinite":true}},"name":"tshirt_pivot","samplers":[{"input":147,"interpolation":"LINEAR","output":148},{"input":149,"interpolation":"LINEAR","output":150}]},{"channels":[{"sampler":0,"target":{"node":9,"path":"rotation"}}],"extensions":{"S8S_v3d_animation":{"auto":true,"loop":"REPEAT","offset":0.0,"repeatCount":1.0,"repeatInfinite":true}},"name":"camrotateaxis","samplers":[{"input":151,"interpolation":"LINEAR","output":152}]},{"channels":[{"sampler":0,"target":{"node":13,"path":"rotation"}}],"extensions":{"S8S_v3d_animation":{"auto":true,"loop":"REPEAT","offset":0.0,"repeatCount":1.0,"repeatInfinite":true}},"name":"camrotatezoomaxis","samplers":[{"input":153,"interpolation":"LINEAR","output":154}]},{"channels":[{"sampler":0,"target":{"node":14,"path":"translation"}}],"extensions":{"S8S_v3d_animation":{"auto":true,"loop":"REPEAT","offset":0.0,"repeatCount":1.0,"repeatInfinite":true}},"name":"camrotatezoom","samplers":[{"input":155,"interpolation":"LINEAR","output":156}]},{"channels":[{"sampler":0,"target":{"node":1,"path":"weights"}}],"extensions":{"S8S_v3d_animation":{"auto":true,"loop":"REPEAT","offset":0.0,"repeatCount":1.0,"repeatInfinite":true}},"name":"tshirt_waves","samplers":[{"input":157,"interpolation":"LINEAR","output":158}]},{"channels":[{"sampler":0,"target":{"node":3,"path":"weights"}}],"extensions":{"S8S_v3d_animation":{"auto":true,"loop":"REPEAT","offset":0.0,"repeatCount":1.0,"repeatInfinite":true}},"name":"tshirt_walking","samplers":[{"input":159,"interpolation":"LINEAR","output":160}]}],"asset":{"generator":"Verge3D for Blender v4.8.0","version":"2.0"},"bufferViews":[{"buffer":0,"byteLength":741372,"byteOffset":0,"target":34963},{"buffer":0,"byteLength":753120,"byteOffset":741372,"target":34962},{"buffer":0,"byteLength":753120,"byteOffset":1494492,"target":34962},{"buffer":0,"byteLength":1004160,"byteOffset":2247612,"target":34962},{"buffer":0,"byteLength":502080,"byteOffset":3251772,"target":34962},{"buffer":0,"byteLength":741372,"byteOffset":3753852,"target":34963},{"buffer":0,"byteLength":753120,"byteOffset":4495224,"target":34962},{"buffer":0,"byteLength":753120,"byteOffset":5248344,"target":34962},{"buffer":0,"byteLength":1004160,"byteOffset":6001464,"target":34962},{"buffer":0,"byteLength":502080,"byteOffset":7005624,"target":34962},{"buffer":0,"byteLength":195024,"byteOffset":7507704,"target":34963},{"buffer":0,"byteLength":201036,"byteOffset":7702728,"target":34962},{"buffer":0,"byteLength":201036,"byteOffset":7903764,"target":34962},{"buffer":0,"byteLength":268048,"byteOffset":8104800,"target":34962},{"buffer":0,"byteLength":134024,"byteOffset":8372848,"target":34962},{"buffer":0,"byteLength":201036,"byteOffset":8506872},{"buffer":0,"byteLength":201036,"byteOffset":8707908},{"buffer":0,"byteLength":201036,"byteOffset":8908944},{"buffer":0,"byteLength":201036,"byteOffset":9109980},{"buffer":0,"byteLength":201036,"byteOffset":9311016},{"buffer":0,"byteLength":201036,"byteOffset":9512052},{"buffer":0,"byteLength":201036,"byteOffset":9713088},{"buffer":0,"byteLength":201036,"byteOffset":9914124},{"buffer":0,"byteLength":201036,"byteOffset":10115160},{"buffer":0,"byteLength":201036,"byteOffset":10316196},{"buffer":0,"byteLength":201036,"byteOffset":10517232},{"buffer":0,"byteLength":201036,"byteOffset":10718268},{"buffer":0,"byteLength":201036,"byteOffset":10919304},{"buffer":0,"byteLength":201036,"byteOffset":11120340},{"buffer":0,"byteLength":201036,"byteOffset":11321376},{"buffer":0,"byteLength":201036,"byteOffset":11522412},{"buffer":0,"byteLength":201036,"byteOffset":11723448},{"buffer":0,"byteLength":201036,"byteOffset":11924484},{"buffer":0,"byteLength":201036,"byteOffset":12125520},{"buffer":0,"byteLength":201036,"byteOffset":12326556},{"buffer":0,"byteLength":201036,"byteOffset":12527592},{"buffer":0,"byteLength":201036,"byteOffset":12728628},{"buffer":0,"byteLength":201036,"byteOffset":12929664},{"buffer":0,"byteLength":201036,"byteOffset":13130700},{"buffer":0,"byteLength":201036,"byteOffset":13331736},{"buffer":0,"byteLength":201036,"byteOffset":13532772},{"buffer":0,"byteLength":201036,"byteOffset":13733808},{"buffer":0,"byteLength":201036,"byteOffset":13934844},{"buffer":0,"byteLength":201036,"byteOffset":14135880},{"buffer":0,"byteLength":201036,"byteOffset":14336916},{"buffer":0,"byteLength":201036,"byteOffset":14537952},{"buffer":0,"byteLength":201036,"byteOffset":14738988},{"buffer":0,"byteLength":201036,"byteOffset":14940024},{"buffer":0,"byteLength":201036,"byteOffset":15141060},{"buffer":0,"byteLength":201036,"byteOffset":15342096},{"buffer":0,"byteLength":201036,"byteOffset":15543132},{"buffer":0,"byteLength":201036,"byteOffset":15744168},{"buffer":0,"byteLength":201036,"byteOffset":15945204},{"buffer":0,"byteLength":201036,"byteOffset":16146240},{"buffer":0,"byteLength":201036,"byteOffset":16347276},{"buffer":0,"byteLength":201036,"byteOffset":16548312},{"buffer":0,"byteLength":201036,"byteOffset":16749348},{"buffer":0,"byteLength":201036,"byteOffset":16950384},{"buffer":0,"byteLength":201036,"byteOffset":17151420},{"buffer":0,"byteLength":201036,"byteOffset":17352456},{"buffer":0,"byteLength":201036,"byteOffset":17553492},{"buffer":0,"byteLength":201036,"byteOffset":17754528},{"buffer":0,"byteLength":201036,"byteOffset":17955564},{"buffer":0,"byteLength":195024,"byteOffset":18156600,"target":34963},{"buffer":0,"byteLength":201036,"byteOffset":18351624,"target":34962},{"buffer":0,"byteLength":201036,"byteOffset":18552660,"target":34962},{"buffer":0,"byteLength":268048,"byteOffset":18753696,"target":34962},{"buffer":0,"byteLength":134024,"byteOffset":19021744,"target":34962},{"buffer":0,"byteLength":201036,"byteOffset":19155768},{"buffer":0,"byteLength":201036,"byteOffset":19356804},{"buffer":0,"byteLength":201036,"byteOffset":19557840},{"buffer":0,"byteLength":201036,"byteOffset":19758876},{"buffer":0,"byteLength":201036,"byteOffset":19959912},{"buffer":0,"byteLength":201036,"byteOffset":20160948},{"buffer":0,"byteLength":201036,"byteOffset":20361984},{"buffer":0,"byteLength":201036,"byteOffset":20563020},{"buffer":0,"byteLength":201036,"byteOffset":20764056},{"buffer":0,"byteLength":201036,"byteOffset":20965092},{"buffer":0,"byteLength":201036,"byteOffset":21166128},{"buffer":0,"byteLength":201036,"byteOffset":21367164},{"buffer":0,"byteLength":201036,"byteOffset":21568200},{"buffer":0,"byteLength":201036,"byteOffset":21769236},{"buffer":0,"byteLength":201036,"byteOffset":21970272},{"buffer":0,"byteLength":201036,"byteOffset":22171308},{"buffer":0,"byteLength":201036,"byteOffset":22372344},{"buffer":0,"byteLength":201036,"byteOffset":22573380},{"buffer":0,"byteLength":201036,"byteOffset":22774416},{"buffer":0,"byteLength":201036,"byteOffset":22975452},{"buffer":0,"byteLength":201036,"byteOffset":23176488},{"buffer":0,"byteLength":201036,"byteOffset":23377524},{"buffer":0,"byteLength":201036,"byteOffset":23578560},{"buffer":0,"byteLength":201036,"byteOffset":23779596},{"buffer":0,"byteLength":201036,"byteOffset":23980632},{"buffer":0,"byteLength":201036,"byteOffset":24181668},{"buffer":0,"byteLength":201036,"byteOffset":24382704},{"buffer":0,"byteLength":201036,"byteOffset":24583740},{"buffer":0,"byteLength":201036,"byteOffset":24784776},{"buffer":0,"byteLength":201036,"byteOffset":24985812},{"buffer":0,"byteLength":201036,"byteOffset":25186848},{"buffer":0,"byteLength":201036,"byteOffset":25387884},{"buffer":0,"byteLength":201036,"byteOffset":25588920},{"buffer":0,"byteLength":201036,"byteOffset":25789956},{"buffer":0,"byteLength":201036,"byteOffset":25990992},{"buffer":0,"byteLength":201036,"byteOffset":26192028},{"buffer":0,"byteLength":201036,"byteOffset":26393064},{"buffer":0,"byteLength":201036,"byteOffset":26594100},{"buffer":0,"byteLength":201036,"byteOffset":26795136},{"buffer":0,"byteLength":201036,"byteOffset":26996172},{"buffer":0,"byteLength":201036,"byteOffset":27197208},{"buffer":0,"byteLength":201036,"byteOffset":27398244},{"buffer":0,"byteLength":201036,"byteOffset":27599280},{"buffer":0,"byteLength":201036,"byteOffset":27800316},{"buffer":0,"byteLength":201036,"byteOffset":28001352},{"buffer":0,"byteLength":201036,"byteOffset":28202388},{"buffer":0,"byteLength":201036,"byteOffset":28403424},{"buffer":0,"byteLength":201036,"byteOffset":28604460},{"buffer":0,"byteLength":201036,"byteOffset":28805496},{"buffer":0,"byteLength":201036,"byteOffset":29006532},{"buffer":0,"byteLength":201036,"byteOffset":29207568},{"buffer":0,"byteLength":201036,"byteOffset":29408604},{"buffer":0,"byteLength":201036,"byteOffset":29609640},{"buffer":0,"byteLength":201036,"byteOffset":29810676},{"buffer":0,"byteLength":201036,"byteOffset":30011712},{"buffer":0,"byteLength":201036,"byteOffset":30212748},{"buffer":0,"byteLength":201036,"byteOffset":30413784},{"buffer":0,"byteLength":201036,"byteOffset":30614820},{"buffer":0,"byteLength":201036,"byteOffset":30815856},{"buffer":0,"byteLength":201036,"byteOffset":31016892},{"buffer":0,"byteLength":201036,"byteOffset":31217928},{"buffer":0,"byteLength":201036,"byteOffset":31418964},{"buffer":0,"byteLength":201036,"byteOffset":31620000},{"buffer":0,"byteLength":6,"byteOffset":31821036,"target":34963},{"buffer":0,"byteLength":48,"byteOffset":31821044,"target":34962},{"buffer":0,"byteLength":48,"byteOffset":31821092,"target":34962},{"buffer":0,"byteLength":32,"byteOffset":31821140,"target":34962},{"buffer":0,"byteLength":6,"byteOffset":31821172,"target":34963},{"buffer":0,"byteLength":48,"byteOffset":31821180,"target":34962},{"buffer":0,"byteLength":48,"byteOffset":31821228,"target":34962},{"buffer":0,"byteLength":32,"byteOffset":31821276,"target":34962},{"buffer":0,"byteLength":6,"byteOffset":31821308,"target":34963},{"buffer":0,"byteLength":48,"byteOffset":31821316,"target":34962},{"buffer":0,"byteLength":48,"byteOffset":31821364,"target":34962},{"buffer":0,"byteLength":32,"byteOffset":31821412,"target":34962},{"buffer":0,"byteLength":13992,"byteOffset":31821444,"target":34963},{"buffer":0,"byteLength":14160,"byteOffset":31835436,"target":34962},{"buffer":0,"byteLength":14160,"byteOffset":31849596,"target":34962},{"buffer":0,"byteLength":9440,"byteOffset":31863756,"target":34962},{"buffer":0,"byteLength":188,"byteOffset":31873196},{"buffer":0,"byteLength":752,"byteOffset":31873384},{"buffer":0,"byteLength":148,"byteOffset":31874136},{"buffer":0,"byteLength":444,"byteOffset":31874284},{"buffer":0,"byteLength":24,"byteOffset":31874728},{"buffer":0,"byteLength":96,"byteOffset":31874752},{"buffer":0,"byteLength":24,"byteOffset":31874848},{"buffer":0,"byteLength":96,"byteOffset":31874872},{"buffer":0,"byteLength":240,"byteOffset":31874968},{"buffer":0,"byteLength":720,"byteOffset":31875208},{"buffer":0,"byteLength":84,"byteOffset":31875928},{"buffer":0,"byteLength":1764,"byteOffset":31876012},{"buffer":0,"byteLength":68,"byteOffset":31877776},{"buffer":0,"byteLength":1088,"byteOffset":31877844}],"buffers":[{"byteLength":31878932,"uri":"tshirt-sizingtest.bin"}],"cameras":[{"extensions":{"S8S_v3d_camera":{"controls":"ORBIT","enablePan":false,"moveSpeed":1.0,"orbitMaxDistance":40.0,"orbitMaxPolarAngle":2.094395160675049,"orbitMaxZoom":100.0,"orbitMinDistance":12.0,"orbitMinPolarAngle":0.0,"orbitMinZoom":0.009999999776482582,"orbitTarget":[0.0,0.0,-0.0],"rotateSpeed":1.0,"viewportFitInitialAspect":1.7777777910232544,"viewportFitType":"VERTICAL"}},"name":"camrotatezoom","perspective":{"aspectRatio":1.7777777910232544,"yfov":0.5033799409866333,"zfar":500.0,"znear":0.10000000149011612},"type":"perspective"},{"extensions":{"S8S_v3d_camera":{"controls":"ORBIT","enablePan":false,"moveSpeed":1.0,"orbitMaxDistance":40.0,"orbitMaxPolarAngle":2.094395160675049,"orbitMaxZoom":100.0,"orbitMinDistance":12.0,"orbitMinPolarAngle":0.0,"orbitMinZoom":0.009999999776482582,"orbitTarget":[0.0,0.0,-0.0],"rotateSpeed":1.0,"viewportFitInitialAspect":1.7777777910232544,"viewportFitType":"VERTICAL"}},"name":"Camera.002","perspective":{"aspectRatio":1.7777777910232544,"yfov":0.4710899591445923,"zfar":1000.0,"znear":0.10000000149011612},"type":"perspective"},{"extensions":{"S8S_v3d_camera":{"controls":"ORBIT","enablePan":false,"moveSpeed":1.0,"orbitMaxDistance":40.0,"orbitMaxPolarAngle":2.094395160675049,"orbitMaxZoom":100.0,"orbitMinDistance":12.0,"orbitMinPolarAngle":0.0,"orbitMinZoom":0.009999999776482582,"orbitTarget":[0.0,0.0,-0.0],"rotateSpeed":1.0,"viewportFitInitialAspect":1.7777777910232544,"viewportFitType":"VERTICAL"}},"name":"camrotate","perspective":{"aspectRatio":1.7777777910232544,"yfov":0.5033799409866333,"zfar":500.0,"znear":0.10000000149011612},"type":"perspective"}],"extensionsUsed":["S8S_v3d_texture","S8S_v3d_materials","S8S_v3d_camera","S8S_v3d_mesh","S8S_v3d_node","S8S_v3d_animation","S8S_v3d_scene"],"images":[{"uri":"ao_tshirt_inside.jpg"},{"uri":"ao_tshirt_outside.jpg"},{"uri":"acidwash.jpg"},{"uri":"yourdesignhere.png"},{"uri":"normaldetailsv2.jpg"},{"uri":"NormalFabric.png"},{"uri":"clouds.jpg"},{"uri":"NormalDetails.jpg"},{"uri":"yourdesignhere_001.png"},{"uri":"studio_env.hdr"}],"materials":[{"alphaMode":"OPAQUE","doubleSided":true,"extensions":{"S8S_v3d_materials":{"gtaoVisible":true,"materialIndex":0,"nodeGraph":{"edges":[{"fromNode":9,"fromOutput":2,"toInput":0,"toNode":21},{"fromNode":24,"fromOutput":0,"toInput":3,"toNode":21},{"fromNode":3,"fromOutput":6,"toInput":0,"toNode":1},{"fromNode":12,"fromOutput":0,"toInput":1,"toNode":1},{"fromNode":4,"fromOutput":0,"toInput":2,"toNode":1},{"fromNode":1,"fromOutput":0,"toInput":0,"toNode":0},{"fromNode":14,"fromOutput":0,"toInput":7,"toNode":15},{"fromNode":5,"fromOutput":2,"toInput":6,"toNode":15},{"fromNode":14,"fromOutput":1,"toInput":0,"toNode":15},{"fromNode":6,"fromOutput":0,"toInput":7,"toNode":10},{"fromNode":2,"fromOutput":0,"toInput":0,"toNode":10},{"fromNode":7,"fromOutput":0,"toInput":0,"toNode":5},{"fromNode":6,"fromOutput":0,"toInput":7,"toNode":5},{"fromNode":13,"fromOutput":0,"toInput":7,"toNode":18},{"fromNode":15,"fromOutput":2,"toInput":6,"toNode":18},{"fromNode":14,"fromOutput":1,"toInput":6,"toNode":8},{"fromNode":10,"fromOutput":2,"toInput":0,"toNode":12},{"fromNode":8,"fromOutput":2,"toInput":2,"toNode":11},{"fromNode":20,"fromOutput":0,"toInput":3,"toNode":11},{"fromNode":11,"fromOutput":0,"toInput":22,"toNode":4},{"fromNode":18,"fromOutput":2,"toInput":0,"toNode":4},{"fromNode":16,"fromOutput":0,"toInput":0,"toNode":11},{"fromNode":17,"fromOutput":0,"toInput":0,"toNode":18},{"fromNode":20,"fromOutput":0,"toInput":22,"toNode":12},{"fromNode":19,"fromOutput":2,"toInput":1,"toNode":20},{"fromNode":22,"fromOutput":0,"toInput":7,"toNode":19},{"fromNode":23,"fromOutput":0,"toInput":6,"toNode":19},{"fromNode":21,"fromOutput":0,"toInput":0,"toNode":23}],"nodes":[{"inputs":[[0,0,0,0],[0,0,0,0],[0.0,0.0,0.0],0.0],"is_active_output":true,"name":"Material Output","outputs":[],"type":"OUTPUT_MATERIAL_BL"},{"inputs":[0.5,[0,0,0,0],[0,0,0,0]],"is_active_output":false,"name":"Mix Shader","outputs":[[0,0,0,0]],"type":"MIX_SHADER_BL"},{"alphaMode":"STRAIGHT","inputs":[[0.0,0.0,0.0]],"is_active_output":false,"name":"Image Texture.005","outputs":[[0.0,0.0,0.0,0.0],0.0],"projection":"FLAT","projectionBlend":0.0,"texture":0,"type":"TEX_IMAGE_BL"},{"inputs":[],"is_active_output":false,"name":"Geometry","outputs":[[0.0,0.0,0.0],[0.0,0.0,0.0],[0.0,0.0,0.0],[0.0,0.0,0.0],[0.0,0.0,0.0],[0.0,0.0,0.0],0.0,0.0,0.0],"type":"NEW_GEOMETRY_BL"},{"inputs":[[1.0,1.0,1.0,1.0],0.0,[1.0,0.20000000298023224,0.10000000149011612],[0.800000011920929,0.800000011920929,0.800000011920929,1.0],1.399999976158142,0.0,0.0,0.0,0.0,0.8999999761581421,0.0,0.0,0.5,0.5,0.0,0.029999999329447746,1.4500000476837158,0.0,0.0,[0.0,0.0,0.0,1.0],1.0,1.0,[0.0,0.0,0.0],[0.0,0.0,0.0],[0.0,0.0,0.0]],"is_active_output":false,"name":"Principled BSDF","outputs":[[0,0,0,0]],"type":"BSDF_PRINCIPLED_BL"},{"blendType":"MIX","clampFactor":true,"clampResult":false,"dataType":"RGBA","factorMode":"UNIFORM","inputs":[0.5,[0.5,0.5,0.5],0.0,0.0,[0.0,0.0,0.0],[0.0,0.0,0.0],[0.0,0.0,0.0,1.0],[1.0,1.0,1.0,1.0]],"is_active_output":false,"name":"Mix","outputs":[0.0,[0.0,0.0,0.0],[0.0,0.0,0.0,0.0]],"type":"MIX_BL"},{"inputs":[],"is_active_output":false,"name":"RGB","outputs":[[1.0,1.0,1.0,1.0]],"type":"RGB_BL"},{"alphaMode":"STRAIGHT","inputs":[[0.0,0.0,0.0]],"is_active_output":false,"name":"Image Texture.002","outputs":[[0.0,0.0,0.0,0.0],0.0],"projection":"FLAT","projectionBlend":0.0,"texture":1,"type":"TEX_IMAGE_BL"},{"blendType":"MIX","clampFactor":true,"clampResult":false,"dataType":"RGBA","factorMode":"UNIFORM","inputs":[0.5,[0.5,0.5,0.5],0.0,0.0,[0.0,0.0,0.0],[0.0,0.0,0.0],[0.5,0.5,0.5,1.0],[0.5,0.5,0.5,1.0]],"is_active_output":false,"name":"Mix.005","outputs":[0.0,[0.0,0.0,0.0],[0.0,0.0,0.0,0.0]],"type":"MIX_BL"},{"inputs":[],"is_active_output":false,"name":"Texture Coordinate.001","object":-1,"outputs":[[0.0,0.0,0.0],[0.0,0.0,0.0],[0.0,0.0,0.0],[0.0,0.0,0.0],[0.0,0.0,0.0],[0.0,0.0,0.0],[0.0,0.0,0.0]],"type":"TEX_COORD_BL"},{"blendType":"MIX","clampFactor":true,"clampResult":false,"dataType":"RGBA","factorMode":"UNIFORM","inputs":[0.5,[0.5,0.5,0.5],0.0,0.0,[0.0,0.0,0.0],[0.0,0.0,0.0],[0.0,0.0,0.0,1.0],[1.0,1.0,1.0,1.0]],"is_active_output":false,"name":"Mix.001","outputs":[0.0,[0.0,0.0,0.0],[0.0,0.0,0.0,0.0]],"type":"MIX_BL"},{"inputs":[2.0,1.0,1.0,[0.0,0.0,0.0]],"invert":false,"is_active_output":false,"name":"Bump","outputs":[[0.0,0.0,0.0]],"type":"BUMP_BL"},{"inputs":[[1.0,1.0,1.0,1.0],0.0,[1.0,0.20000000298023224,0.10000000149011612],[0.800000011920929,0.800000011920929,0.800000011920929,1.0],1.399999976158142,0.0,0.0,0.0,0.0,0.8999999761581421,0.0,0.0,0.0,0.5,0.0,0.029999999329447746,1.4500000476837158,0.0,0.0,[0.0,0.0,0.0,1.0],1.0,1.0,[0.0,0.0,0.0],[0.0,0.0,0.0],[0.0,0.0,0.0]],"is_active_output":false,"name":"Principled BSDF.001","outputs":[[0,0,0,0]],"type":"BSDF_PRINCIPLED_BL"},{"alphaMode":"STRAIGHT","inputs":[[0.0,0.0,0.0]],"is_active_output":false,"name":"Image Texture.006","outputs":[[0.0,0.0,0.0,0.0],0.0],"projection":"FLAT","projectionBlend":0.0,"texture":2,"type":"TEX_IMAGE_BL"},{"alphaMode":"STRAIGHT","inputs":[[0.0,0.0,0.0]],"is_active_output":false,"name":"Image Texture.004","outputs":[[0.0,0.0,0.0,0.0],0.0],"projection":"FLAT","projectionBlend":0.0,"texture":3,"type":"TEX_IMAGE_BL"},{"blendType":"MIX","clampFactor":true,"clampResult":false,"dataType":"RGBA","factorMode":"UNIFORM","inputs":[0.5,[0.5,0.5,0.5],0.0,0.0,[0.0,0.0,0.0],[0.0,0.0,0.0],[0.5,0.5,0.5,1.0],[0.5,0.5,0.5,1.0]],"is_active_output":false,"name":"Mix.003","outputs":[0.0,[0.0,0.0,0.0],[0.0,0.0,0.0,0.0]],"type":"MIX_BL"},{"inputs":[],"is_active_output":false,"name":"Value.003","outputs":[0.0],"type":"VALUE_BL"},{"inputs":[],"is_active_output":false,"name":"Value.004","outputs":[0.0],"type":"VALUE_BL"},{"blendType":"SCREEN","clampFactor":true,"clampResult":false,"dataType":"RGBA","factorMode":"UNIFORM","inputs":[1.0,[0.5,0.5,0.5],0.0,0.0,[0.0,0.0,0.0],[0.0,0.0,0.0],[0.5,0.5,0.5,1.0],[0.5,0.5,0.5,1.0]],"is_active_output":false,"name":"Mix.004","outputs":[0.0,[0.0,0.0,0.0],[0.0,0.0,0.0,0.0]],"type":"MIX_BL"},{"blendType":"MIX","clampFactor":true,"clampResult":false,"dataType":"RGBA","factorMode":"UNIFORM","inputs":[0.6083333492279053,[0.5,0.5,0.5],0.0,0.0,[0.0,0.0,0.0],[0.0,0.0,0.0],[0.5,0.5,0.5,1.0],[0.5,0.5,0.5,1.0]],"is_active_output":false,"name":"Mix.002","outputs":[0.0,[0.0,0.0,0.0],[0.0,0.0,0.0,0.0]],"type":"MIX_BL"},{"inputs":[2.0,[0.5,0.5,1.0,1.0]],"is_active_output":false,"name":"Normal Map","outputs":[[0.0,0.0,0.0]],"type":"NORMAL_MAP_BL","uvLayer":""},{"inputs":[[0.0,0.0,0.0],[0.0,0.0,0.0],[-0.0,-0.0,-0.0],[1.0,1.0,1.0]],"is_active_output":false,"name":"Mapping.001","outputs":[[0.0,0.0,0.0]],"type":"MAPPING_BL","vectorType":"TEXTURE"},{"alphaMode":"CHANNEL_PACKED","inputs":[[0.0,0.0,0.0]],"is_active_output":false,"name":"Image Texture.001","outputs":[[0.0,0.0,0.0,0.0],0.0],"projection":"FLAT","projectionBlend":0.0,"texture":4,"type":"TEX_IMAGE_BL"},{"alphaMode":"CHANNEL_PACKED","inputs":[[0.0,0.0,0.0]],"is_active_output":false,"name":"Image Texture","outputs":[[0.0,0.0,0.0,0.0],0.0],"projection":"FLAT","projectionBlend":0.0,"texture":5,"type":"TEX_IMAGE_BL"},{"inputs":[],"is_active_output":false,"name":"Value.001","outputs":[0.029999999329447746],"type":"VALUE_BL"}]},"renderSide":"DOUBLE","useCastShadows":true}},"name":"Base"},{"alphaMode":"BLEND","extensions":{"S8S_v3d_materials":{"alphaToCoverage":true,"gtaoVisible":true,"materialIndex":0,"nodeGraph":{"edges":[{"fromNode":0,"fromOutput":0,"toInput":0,"toNode":4},{"fromNode":1,"fromOutput":2,"toInput":0,"toNode":0},{"fromNode":3,"fromOutput":0,"toInput":0,"toNode":2},{"fromNode":4,"fromOutput":0,"toInput":0,"toNode":3}],"nodes":[{"inputs":[[0.0,0.0,0.0],[0.0,0.0,0.0],[0.0,0.0,0.0],[1.0,1.0,1.0]],"is_active_output":false,"name":"Mapping","outputs":[[0.0,0.0,0.0]],"type":"MAPPING_BL","vectorType":"POINT"},{"inputs":[],"is_active_output":false,"name":"Texture Coordinate","object":-1,"outputs":[[0.0,0.0,0.0],[0.0,0.0,0.0],[0.0,0.0,0.0],[0.0,0.0,0.0],[0.0,0.0,0.0],[0.0,0.0,0.0],[0.0,0.0,0.0]],"type":"TEX_COORD_BL"},{"inputs":[[0,0,0,0],[0,0,0,0],[0.0,0.0,0.0],0.0],"is_active_output":true,"name":"Material Output","outputs":[],"type":"OUTPUT_MATERIAL_BL"},{"inputs":[[1.0,1.0,1.0,1.0],1.0],"is_active_output":false,"name":"Emission","outputs":[[0,0,0,0]],"type":"EMISSION_BL"},{"alphaMode":"STRAIGHT","inputs":[[0.0,0.0,0.0]],"is_active_output":false,"name":"Image Texture","outputs":[[0.0,0.0,0.0,0.0],0.0],"projection":"FLAT","projectionBlend":0.0,"texture":6,"type":"TEX_IMAGE_BL"}]},"useCastShadows":true}},"name":"camera_bg"},{"alphaMode":"BLEND","extensions":{"S8S_v3d_materials":{"alphaToCoverage":true,"gtaoVisible":true,"materialIndex":0,"nodeGraph":{"edges":[{"fromNode":0,"fromOutput":0,"toInput":0,"toNode":1},{"fromNode":2,"fromOutput":0,"toInput":0,"toNode":0}],"nodes":[{"inputs":[[0.800000011920929,0.800000011920929,0.800000011920929,1.0],0.0,[1.0,0.20000000298023224,0.10000000149011612],[0.800000011920929,0.800000011920929,0.800000011920929,1.0],1.399999976158142,0.0,0.0,0.5,0.0,0.8704545497894287,0.0,0.0,0.0,0.5,0.0,0.029999999329447746,1.4500000476837158,0.0,0.0,[0.0,0.0,0.0,1.0],1.0,1.0,[0.0,0.0,0.0],[0.0,0.0,0.0],[0.0,0.0,0.0]],"is_active_output":false,"name":"Principled BSDF","outputs":[[0,0,0,0]],"type":"BSDF_PRINCIPLED_BL"},{"inputs":[[0,0,0,0],[0,0,0,0],[0.0,0.0,0.0],0.0],"is_active_output":true,"name":"Material Output","outputs":[],"type":"OUTPUT_MATERIAL_BL"},{"inputs":[],"is_active_output":false,"name":"RGB","outputs":[[0.0,0.0,0.0,1.0]],"type":"RGB_BL"}]},"useCastShadows":true}},"name":"env_sphere"},{"alphaMode":"OPAQUE","doubleSided":true,"name":"susannas_help_PBR","normalTexture":{"index":7},"pbrMetallicRoughness":{"baseColorFactor":[0.800000011920929,0.800000011920929,0.800000011920929,1.0],"baseColorTexture":{"index":8},"metallicFactor":0.0}},{"alphaMode":"OPAQUE","extensions":{"S8S_v3d_materials":{"gtaoVisible":true,"materialIndex":0,"nodeGraph":{"edges":[{"fromNode":1,"fromOutput":0,"toInput":0,"toNode":0},{"fromNode":2,"fromOutput":0,"toInput":0,"toNode":1}],"nodes":[{"inputs":[[0,0,0,0],[0,0,0,0]],"is_active_output":true,"name":"World Output","outputs":[],"type":"OUTPUT_WORLD_BL"},{"inputs":[[0.05000000074505806,0.05000000074505806,0.05000000074505806,1.0],0.8999999761581421],"is_active_output":false,"name":"Background","outputs":[[0,0,0,0]],"type":"BACKGROUND_BL"},{"inputs":[[0.0,0.0,0.0]],"is_active_output":false,"name":"Environment Texture","outputs":[[0.0,0.0,0.0,0.0]],"projection":"EQUIRECTANGULAR","texture":9,"type":"TEX_ENVIRONMENT_BL"}]},"useCastShadows":true}},"name":"Verge3D_Environment_World.001"}],"meshes":[{"extensions":{"S8S_v3d_mesh":{"colorLayers":{},"uvLayers":{"UV_Map":"TEXCOORD_0"}}},"name":"Mesh.001","primitives":[{"attributes":{"NORMAL":2,"POSITION":1,"TANGENT":3,"TEXCOORD_0":4},"indices":0,"material":0,"mode":4}]},{"extensions":{"S8S_v3d_mesh":{"colorLayers":{},"uvLayers":{}}},"name":"Mesh.002","primitives":[{"attributes":{"NORMAL":7,"POSITION":6,"TANGENT":8,"TEXCOORD_0":9},"indices":5,"material":3,"mode":4}]},{"extensions":{"S8S_v3d_mesh":{"colorLayers":{},"uvLayers":{"uv":"TEXCOORD_0"}}},"extras":{"targetNames":["frame_0000","frame_0001","frame_0002","frame_0003","frame_0004","frame_0005","frame_0006","frame_0007","frame_0008","frame_0009","frame_0010","frame_0011","frame_0012","frame_0013","frame_0014","frame_0015"]},"name":"Mesh.003","primitives":[{"attributes":{"NORMAL":12,"POSITION":11,"TANGENT":13,"TEXCOORD_0":14},"indices":10,"material":0,"mode":4,"targets":[{"NORMAL":16,"POSITION":15,"TANGENT":17},{"NORMAL":19,"POSITION":18,"TANGENT":20},{"NORMAL":22,"POSITION":21,"TANGENT":23},{"NORMAL":25,"POSITION":24,"TANGENT":26},{"NORMAL":28,"POSITION":27,"TANGENT":29},{"NORMAL":31,"POSITION":30,"TANGENT":32},{"NORMAL":34,"POSITION":33,"TANGENT":35},{"NORMAL":37,"POSITION":36,"TANGENT":38},{"NORMAL":40,"POSITION":39,"TANGENT":41},{"NORMAL":43,"POSITION":42,"TANGENT":44},{"NORMAL":46,"POSITION":45,"TANGENT":47},{"NORMAL":49,"POSITION":48,"TANGENT":50},{"NORMAL":52,"POSITION":51,"TANGENT":53},{"NORMAL":55,"POSITION":54,"TANGENT":56},{"NORMAL":58,"POSITION":57,"TANGENT":59},{"NORMAL":61,"POSITION":60,"TANGENT":62}]}],"weights":[1.0,0.0,0.0,0.0,0.0,0.0,0.0,0.0,0.0,0.0,0.0,0.0,0.0,0.0,0.0,0.0]},{"extensions":{"S8S_v3d_mesh":{"colorLayers":{},"uvLayers":{"uv":"TEXCOORD_0"}}},"extras":{"targetNames":["frame_0000","frame_0001","frame_0002","frame_0003","frame_0004","frame_0005","frame_0006","frame_0007","frame_0008","frame_0009","frame_0010","frame_0011","frame_0012","frame_0013","frame_0014","frame_0015","frame_0016","frame_0017","frame_0018","frame_0019","frame_0020"]},"name":"Mesh.005","primitives":[{"attributes":{"NORMAL":65,"POSITION":64,"TANGENT":66,"TEXCOORD_0":67},"indices":63,"material":0,"mode":4,"targets":[{"NORMAL":69,"POSITION":68,"TANGENT":70},{"NORMAL":72,"POSITION":71,"TANGENT":73},{"NORMAL":75,"POSITION":74,"TANGENT":76},{"NORMAL":78,"POSITION":77,"TANGENT":79},{"NORMAL":81,"POSITION":80,"TANGENT":82},{"NORMAL":84,"POSITION":83,"TANGENT":85},{"NORMAL":87,"POSITION":86,"TANGENT":88},{"NORMAL":90,"POSITION":89,"TANGENT":91},{"NORMAL":93,"POSITION":92,"TANGENT":94},{"NORMAL":96,"POSITION":95,"TANGENT":97},{"NORMAL":99,"POSITION":98,"TANGENT":100},{"NORMAL":102,"POSITION":101,"TANGENT":103},{"NORMAL":105,"POSITION":104,"TANGENT":106},{"NORMAL":108,"POSITION":107,"TANGENT":109},{"NORMAL":111,"POSITION":110,"TANGENT":112},{"NORMAL":114,"POSITION":113,"TANGENT":115},{"NORMAL":117,"POSITION":116,"TANGENT":118},{"NORMAL":120,"POSITION":119,"TANGENT":121},{"NORMAL":123,"POSITION":122,"TANGENT":124},{"NORMAL":126,"POSITION":125,"TANGENT":127},{"NORMAL":129,"POSITION":128,"TANGENT":130}]}],"weights":[1.0,0.0,0.0,0.0,0.0,0.0,0.0,0.0,0.0,0.0,0.0,0.0,0.0,0.0,0.0,0.0,0.0,0.0,0.0,0.0,0.0]},{"extensions":{"S8S_v3d_mesh":{"colorLayers":{},"uvLayers":{"UVMap":"TEXCOORD_0"}}},"name":"Plane.002","primitives":[{"attributes":{"NORMAL":133,"POSITION":132,"TEXCOORD_0":134},"indices":131,"material":1,"mode":4}]},{"extensions":{"S8S_v3d_mesh":{"colorLayers":{},"uvLayers":{"UVMap":"TEXCOORD_0"}}},"name":"Plane.003","primitives":[{"attributes":{"NORMAL":137,"POSITION":136,"TEXCOORD_0":138},"indices":135,"material":1,"mode":4}]},{"extensions":{"S8S_v3d_mesh":{"colorLayers":{},"uvLayers":{"UVMap":"TEXCOORD_0"}}},"name":"Plane.004","primitives":[{"attributes":{"NORMAL":141,"POSITION":140,"TEXCOORD_0":142},"indices":139,"material":1,"mode":4}]},{"extensions":{"S8S_v3d_mesh":{"colorLayers":{},"uvLayers":{"UVMap":"TEXCOORD_0"}}},"name":"Plane.017","primitives":[{"attributes":{"NORMAL":145,"POSITION":144,"TEXCOORD_0":146},"indices":143,"material":2,"mode":4}]}],"nodes":[{"extensions":{"S8S_v3d_node":{"frustumCulling":true,"groupNames":[],"hidden":false,"hidpiCompositing":false,"objectColor":[1.0,1.0,1.0,1.0],"objectIndex":0,"renderOrder":0,"useShadows":true}},"mesh":7,"name":"env_sphere","scale":[64.93695831298828,64.93695831298828,64.93695831298828],"translation":[0.0,-200.802490234375,-0.0]},{"extensions":{"S8S_v3d_node":{"frustumCulling":true,"groupNames":[],"hidden":false,"hidpiCompositing":false,"objectColor":[0.800000011920929,0.800000011920929,0.800000011920929,1.0],"objectIndex":0,"renderOrder":0,"useShadows":true}},"mesh":3,"name":"tshirt_waves","translation":[7.041597366333008,-0.3871886134147644,0.13597869873046875]},{"extensions":{"S8S_v3d_node":{"frustumCulling":true,"groupNames":[],"hidden":false,"hidpiCompositing":false,"objectColor":[0.800000011920929,0.800000011920929,0.800000011920929,1.0],"objectIndex":0,"renderOrder":0,"useShadows":true}},"mesh":0,"name":"tshirt_static","rotation":[0.7071067690849304,0.0,-0.0,0.7071067690849304],"scale":[0.009999999776482582,0.009999999776482582,0.009999999776482582],"translation":[0.0,-0.4274454116821289,7.554193883385803e-15]},{"extensions":{"S8S_v3d_node":{"frustumCulling":true,"groupNames":[],"hidden":false,"hidpiCompositing":false,"objectColor":[0.800000011920929,0.800000011920929,0.800000011920929,1.0],"objectIndex":0,"renderOrder":0,"useShadows":true}},"mesh":2,"name":"tshirt_walking","translation":[-7.923582553863525,-0.13734978437423706,-0.0]},{"children":[2,3,1],"extensions":{"S8S_v3d_node":{"frustumCulling":true,"groupNames":[],"hidden":false,"hidpiCompositing":false,"objectColor":[1.0,1.0,1.0,1.0],"objectIndex":0,"renderOrder":0}},"name":"tshirt_pivot","scale":[0.0,0.0,0.0]},{"extensions":{"S8S_v3d_node":{"frustumCulling":true,"groupNames":[],"hidden":false,"hidpiCompositing":false,"objectColor":[0.800000011920929,0.800000011920929,0.800000011920929,1.0],"objectIndex":0,"renderOrder":0,"useShadows":true}},"mesh":1,"name":"3Dmodelexport","rotation":[0.7071067690849304,0.0,-0.0,0.7071067690849304],"scale":[0.009999999776482582,0.009999999776482582,0.009999999776482582],"translation":[9.223822593688965,0.0,-0.0]},{"camera":1,"children":[8],"extensions":{"S8S_v3d_node":{"frustumCulling":true,"groupNames":["cameras"],"hidden":false,"hidpiCompositing":false,"objectColor":[1.0,1.0,1.0,1.0],"objectIndex":0,"renderOrder":0}},"name":"cameradefault","rotation":[3.5527141023169746e-15,8.742277657347586e-08,-1.4961772928107227e-15,1.0],"scale":[1.0,0.9999998807907104,0.9999998807907104],"translation":[-0.046143531799316406,-0.005815088748931885,24.822677612304688]},{"extensions":{"S8S_v3d_node":{"constraints":[],"frustumCulling":true,"groupNames":["cameras"],"hidden":false,"hidpiCompositing":false,"objectColor":[1.0,1.0,1.0,1.0],"objectIndex":0,"renderOrder":0,"useShadows":true}},"mesh":4,"name":"cameradefault_bg","rotation":[0.7071067690849304,0.0,-0.0,0.7071067690849304],"translation":[-0.2818117141723633,-0.46581506729125977,-16.577970504760742]},{"children":[7],"name":"v3d_Proxy_Node_0_cameradefault_bg","rotation":[-1.7763570511584873e-15,-8.742277657347586e-08,1.496177081052486e-15,1.0],"scale":[1.0,0.9999999403953552,0.9999999403953552],"translation":[0.046147871762514114,0.005816113203763962,-24.822677612304688]},{"children":[10],"extensions":{"S8S_v3d_node":{"frustumCulling":true,"groupNames":["cameras"],"hidden":false,"hidpiCompositing":false,"objectColor":[1.0,1.0,1.0,1.0],"objectIndex":0,"renderOrder":0}},"name":"camrotateaxis"},{"camera":2,"children":[12],"extensions":{"S8S_v3d_node":{"frustumCulling":true,"groupNames":["cameras"],"hidden":false,"hidpiCompositing":false,"objectColor":[0.0,0.0,0.0,0.0],"objectIndex":0,"renderOrder":0}},"name":"camrotate","rotation":[0.0,0.0,0.0,1.0],"scale":[1.0,0.9999998807907104,0.9999998807907104],"translation":[0.04920554161071777,-0.0236470066010952,16.886680603027344]},{"extensions":{"S8S_v3d_node":{"constraints":[],"frustumCulling":true,"groupNames":["cameras"],"hidden":false,"hidpiCompositing":false,"objectColor":[1.0,1.0,1.0,1.0],"objectIndex":0,"renderOrder":0,"useShadows":true}},"mesh":5,"name":"camrotate_bg","rotation":[0.7071067690849304,0.0,-0.0,0.7071067094802856],"scale":[15.693794250488281,15.693794250488281,15.693794250488281],"translation":[-0.2818117141723633,-0.46581506729125977,-16.577970504760742]},{"children":[11],"name":"v3d_Proxy_Node_0_camrotate_bg","rotation":[1.7763570511584873e-15,0.0,0.0,1.0],"scale":[1.0,0.9999999403953552,0.9999999403953552],"translation":[-0.04920554161071777,0.023645691573619843,-16.886680603027344]},{"children":[14],"extensions":{"S8S_v3d_node":{"frustumCulling":true,"groupNames":["cameras"],"hidden":false,"hidpiCompositing":false,"objectColor":[1.0,1.0,1.0,1.0],"objectIndex":0,"renderOrder":0}},"name":"camrotatezoomaxis"},{"camera":0,"children":[16],"extensions":{"S8S_v3d_node":{"frustumCulling":true,"groupNames":["cameras"],"hidden":false,"hidpiCompositing":false,"objectColor":[0.0,0.0,0.0,0.0],"objectIndex":0,"renderOrder":0}},"name":"camrotatezoom","rotation":[0.0,0.0,0.0,1.0],"scale":[1.0,0.9999998807907104,0.9999998807907104],"translation":[0.04920554161071777,-0.0236470066010952,25.0]},{"extensions":{"S8S_v3d_node":{"constraints":[],"frustumCulling":true,"groupNames":["cameras"],"hidden":false,"hidpiCompositing":false,"objectColor":[1.0,1.0,1.0,1.0],"objectIndex":0,"renderOrder":0,"useShadows":true}},"mesh":6,"name":"camrotatezoom_bg","rotation":[0.7071067690849304,0.0,-0.0,0.7071067094802856],"scale":[15.693794250488281,15.693794250488281,15.693794250488281],"translation":[-0.2818117141723633,-0.46581506729125977,-16.577970504760742]},{"children":[15],"name":"v3d_Proxy_Node_0_camrotatezoom_bg","rotation":[1.7763570511584873e-15,0.0,0.0,1.0],"scale":[1.0,0.9999999403953552,0.9999999403953552],"translation":[-0.04920554161071777,0.023645691573619843,-16.886680603027344]}],"samplers":[{}],"scene":0,"scenes":[{"extensions":{"S8S_v3d_scene":{"aaMethod":"AUTO","iblEnvironmentMode":"PMREM","physicallyCorrectLights":true,"pmremMaxTileSize":256,"shadowMap":{"esmDistanceScale":1.0,"renderReverseSided":false,"renderSingleSided":false,"type":"PCFPOISSON"},"worldMaterial":4}},"extras":{"animFrameRate":30,"coordSystem":"Z_UP_RIGHT"},"name":"Scene","nodes":[0,4,5,6,9,13]}],"textures":[{"extensions":{"S8S_v3d_texture":{"colorSpace":"srgb"}},"name":"ao_tshirt_inside.jpg","sampler":0,"source":0},{"extensions":{"S8S_v3d_texture":{"colorSpace":"srgb"}},"name":"ao_tshirt_outside.jpg","sampler":0,"source":1},{"extensions":{"S8S_v3d_texture":{"colorSpace":"srgb"}},"name":"acidwash.jpg","sampler":0,"source":2},{"extensions":{"S8S_v3d_texture":{"anisotropy":16,"colorSpace":"srgb"}},"name":"yourdesignhere.png.001","sampler":0,"source":3},{"extensions":{"S8S_v3d_texture":{"anisotropy":16,"colorSpace":"non-color"}},"name":"normaldetailsv2.jpg","sampler":0,"source":4},{"extensions":{"S8S_v3d_texture":{"colorSpace":"non-color"}},"name":"NormalFabric.png","sampler":0,"source":5},{"extensions":{"S8S_v3d_texture":{"colorSpace":"srgb"}},"name":"clouds.jpg","sampler":0,"source":6},{"extensions":{"S8S_v3d_texture":{"colorSpace":"non-color"}},"name":"NormalDetails.jpg.003","sampler":0,"source":7},{"extensions":{"S8S_v3d_texture":{"colorSpace":"srgb"}},"name":"yourdesignhere_001.png","sampler":0,"source":8},{"extensions":{"S8S_v3d_texture":{"colorSpace":"linear","source":9}},"name":"studio_env.hdr","sampler":0}]}
